<svg xmlns="http://www.w3.org/2000/svg" version="1.1" xmlns:xlink="http://www.w3.org/1999/xlink" xmlns:svgjs="http://svgjs.dev/svgjs" width="1440" height="960" preserveAspectRatio="none" viewBox="0 0 1440 960"><g mask="url(&quot;#SvgjsMask1027&quot;)" fill="none"><path d="M899.42 106.27a25.93 25.93 0 1 0-38.4-34.86z" stroke="rgba(185, 187, 204, 1)"></path><path d="M895.78 351.43L897.29 351.43L897.29 352.94L895.78 352.94z" fill="rgba(185, 187, 204, 1)"></path><path d="M799.24 728.27 a41.42 41.42 0 1 0 82.84 0 a41.42 41.42 0 1 0 -82.84 0z" stroke="rgba(35, 3, 45, 1)"></path><path d="M1283.74 526.24 a24.92 24.92 0 1 0 49.84 0 a24.92 24.92 0 1 0 -49.84 0z" fill="rgba(224, 204, 203, 1)"></path><path d="M1059.47 176.5 a30.75 30.75 0 1 0 61.5 0 a30.75 30.75 0 1 0 -61.5 0z" stroke="rgba(54, 53, 48, 1)"></path><path d="M72.1 641.56 a92.22 92.22 0 1 0 184.44 0 a92.22 92.22 0 1 0 -184.44 0z" stroke="rgba(54, 53, 48, 1)"></path><path d="M1080.38 401.29L1141.27 401.29L1141.27 495.99L1080.38 495.99z" stroke="rgba(224, 204, 203, 1)"></path><path d="M1230.62 599.03L1303.43 599.03L1303.43 671.84L1230.62 671.84z" stroke="rgba(224, 204, 203, 1)"></path><path d="M407.61 802.48a92.29 92.29 0 1 0-105.53 151.44z" stroke="rgba(54, 53, 48, 1)"></path><path d="M571.4 623.65L649.66 623.65L649.66 701.91L571.4 701.91z" fill="rgba(185, 187, 204, 1)"></path><path d="M184.8 730.7L279.08 730.7L279.08 824.98L184.8 824.98z" stroke="rgba(185, 187, 204, 1)"></path><path d="M1374.1 96.87a9.28 9.28 0 1 0-15.28 10.54z" fill="rgba(54, 53, 48, 1)"></path><path d="M1068.28 76.44L1140.23 76.44L1140.23 148.39L1068.28 148.39z" fill="rgba(54, 53, 48, 1)"></path><path d="M276.91 30.05 a29.2 29.2 0 1 0 58.4 0 a29.2 29.2 0 1 0 -58.4 0z" fill="rgba(224, 204, 203, 1)"></path><path d="M875.49 723.37L896.56 723.37L896.56 819.16L875.49 819.16z" fill="rgba(54, 53, 48, 1)"></path><path d="M156.14 142.34a7.85 7.85 0 1 0 14.76-5.33z" fill="rgba(224, 204, 203, 1)"></path><path d="M910.23 232.82L995.97 232.82L995.97 269.42L910.23 269.42z" stroke="rgba(54, 53, 48, 1)"></path><path d="M802.97 13.12L804.58 13.12L804.58 44.61L802.97 44.61z" fill="rgba(185, 187, 204, 1)"></path><path d="M1072.74 182.61L1160.68 182.61L1160.68 270.55L1072.74 270.55z" stroke="rgba(185, 187, 204, 1)"></path></g><defs><mask id="SvgjsMask1027"><rect width="1440" height="960" fill="#ffffff"></rect></mask></defs></svg>